<?xml version="1.0" standalone="no"?>
<!DOCTYPE svg PUBLIC "-//W3C//DTD SVG 20010904//EN"
 "http://www.w3.org/TR/2001/REC-SVG-20010904/DTD/svg10.dtd">
<svg version="1.0" xmlns="http://www.w3.org/2000/svg"
 width="512.000000pt" height="512.000000pt" viewBox="0 0 512.000000 512.000000"
 preserveAspectRatio="xMidYMid meet">
<metadata>
Created by potrace 1.11, written by Peter Selinger 2001-2013
</metadata>
<g transform="translate(0.000000,512.000000) scale(0.100000,-0.100000)"
fill="#000000" stroke="none">
<path d="M2410 4909 c-86 -28 -150 -68 -212 -131 -64 -65 -103 -133 -128 -223
l-17 -59 -94 -37 c-140 -53 -237 -103 -346 -176 -54 -36 -100 -68 -103 -72 -3
-3 -21 -18 -40 -32 -61 -45 -194 -182 -262 -270 -152 -195 -258 -411 -318
-649 -10 -36 -30 -64 -104 -140 -150 -155 -217 -246 -304 -411 -71 -135 -141
-319 -158 -414 -2 -17 -7 -39 -11 -49 -18 -60 -31 -228 -29 -361 l3 -150 -60
-35 c-220 -129 -289 -413 -154 -642 54 -92 181 -184 287 -207 61 -13 163 -11
221 4 l48 13 28 -36 c96 -123 289 -294 444 -390 202 -127 490 -224 734 -247
135 -13 341 -6 440 15 22 5 56 12 75 15 19 3 75 17 124 31 84 24 90 24 135 10
64 -21 205 -53 270 -61 30 -4 63 -9 75 -11 27 -6 304 -6 331 0 11 2 45 7 76
10 148 17 381 91 534 169 219 112 381 244 576 470 l24 27 50 -16 c97 -30 253
-6 349 53 297 183 296 619 -1 793 l-59 34 2 161 c1 88 -2 187 -7 220 -5 33
-12 76 -14 95 -13 86 -60 242 -105 350 -90 218 -232 425 -403 589 -43 42 -68
74 -73 95 -3 17 -20 74 -36 126 -159 500 -542 903 -1037 1090 l-94 36 -17 59
c-47 174 -179 306 -358 360 -64 20 -216 16 -282 -6z m-330 -656 c0 -8 10 -33
21 -56 142 -279 491 -371 744 -196 101 70 151 136 204 271 l11 28 52 -20 c312
-120 605 -372 777 -668 36 -62 101 -201 101 -216 0 -3 -37 15 -82 39 -149 78
-323 138 -498 171 -100 18 -386 26 -480 13 -36 -5 -83 -12 -104 -15 -22 -3
-83 -17 -135 -31 -53 -14 -106 -28 -118 -30 -12 -3 -55 5 -95 17 -40 12 -84
24 -98 27 -14 2 -41 8 -60 13 -126 31 -504 34 -610 5 -8 -2 -31 -7 -50 -10
-43 -7 -148 -34 -175 -45 -11 -4 -49 -18 -85 -31 -36 -12 -111 -46 -167 -75
-57 -28 -103 -50 -103 -49 0 26 132 280 170 328 5 7 30 39 56 72 154 198 381
371 618 470 74 31 82 33 94 18 6 -9 12 -23 12 -30z m110 -823 c47 -6 86 -13
88 -14 1 -2 -32 -25 -74 -51 -317 -198 -574 -515 -700 -862 -34 -95 -68 -218
-78 -287 -4 -21 -8 -41 -10 -45 -6 -10 -18 -164 -18 -244 l0 -76 -36 42 c-58
69 -140 201 -188 302 -72 150 -114 296 -140 481 -9 63 -9 275 1 339 4 28 8 61
10 74 1 13 7 26 11 30 161 114 308 192 462 245 56 20 104 35 107 35 3 0 29 5
58 10 88 19 95 20 180 27 45 3 83 7 84 8 6 5 171 -5 243 -14z m1073 5 c90 -7
103 -10 212 -35 160 -37 330 -111 486 -211 81 -52 111 -80 116 -107 21 -122
20 -370 -2 -486 -56 -288 -158 -507 -345 -739 -4 -4 -7 14 -7 40 0 56 -11 222
-19 273 -11 77 -54 241 -88 333 -125 344 -376 656 -689 854 -48 31 -86 57 -85
59 7 6 79 15 163 20 50 4 91 8 93 9 3 2 47 0 165 -10z m-617 -136 c111 -52
168 -87 279 -170 251 -187 436 -446 535 -747 65 -200 89 -428 67 -634 -10 -90
-15 -101 -67 -141 -159 -120 -379 -217 -595 -263 -129 -27 -343 -38 -454 -23
-31 5 -72 10 -91 13 -163 21 -367 94 -530 190 -123 72 -185 121 -188 148 -1
13 -6 53 -10 91 -9 76 -8 269 3 337 40 264 122 476 261 678 35 50 72 100 82
111 133 143 250 246 362 317 34 21 245 131 257 134 1 0 41 -18 89 -41z m-1807
-479 c3 -184 52 -449 106 -565 7 -16 23 -54 34 -83 71 -179 220 -395 386 -557
67 -65 73 -75 89 -140 51 -210 180 -466 326 -647 79 -97 337 -338 363 -338 3
0 35 -20 72 -44 75 -49 74 -50 -35 -62 -159 -18 -323 -10 -495 21 -92 17 -360
116 -405 149 -8 7 -35 22 -60 36 -112 59 -328 243 -406 345 l-27 36 25 27 c73
78 120 203 117 312 -7 236 -178 424 -412 453 -21 3 -41 7 -43 10 -16 16 -2
320 20 433 27 137 113 362 179 469 60 97 152 225 162 225 2 0 3 -36 4 -80z
m3552 -58 c165 -240 260 -549 260 -850 1 -74 -2 -136 -4 -139 -3 -3 -23 -7
-44 -10 -110 -14 -224 -72 -294 -151 -72 -82 -107 -169 -116 -283 -8 -113 34
-240 108 -324 l31 -35 -26 -35 c-116 -152 -374 -346 -576 -433 -69 -30 -262
-91 -309 -98 -20 -3 -42 -7 -50 -10 -51 -17 -291 -23 -421 -11 -123 13 -123
13 -34 69 148 95 268 199 405 354 49 55 152 209 200 299 61 114 104 223 140
349 27 98 28 99 97 165 271 256 458 626 507 1000 4 25 8 60 11 78 2 18 4 71 5
120 l1 87 30 -34 c16 -19 51 -68 79 -108z m-2581 -1459 c318 -158 687 -212
1035 -152 167 29 318 79 479 159 55 27 102 47 104 45 3 -3 -23 -61 -57 -129
-157 -315 -439 -586 -749 -719 l-63 -27 -55 25 c-30 14 -57 25 -59 25 -2 0
-44 23 -92 52 -273 160 -486 392 -619 672 -24 51 -44 97 -44 100 0 9 -10 13
120 -51z"/>
</g>
</svg>
